<?xml version="1.0" encoding="UTF-8"?>
<svg width="1200pt" height="1200pt" version="1.1" viewBox="0 0 1200 1200" xmlns="http://www.w3.org/2000/svg">
 <path d="m820.16 633.75c-1.2969 4.1602-2.4453 7.957-3.6602 11.734-12.949 40.191-32.254 76.957-59.551 109.31-20.57 24.383-44.785 44.289-73.598 58.301-21.535 10.484-44.254 16.578-68.152 18.109-46.484 2.9609-89.172-8.5039-127.69-34.586-22.652-15.328-40.527-35.184-52.391-60.047-7.8555-16.445-11.766-33.836-12.168-52.043-0.71484-33.102 10.004-62.41 29.559-88.742 19.105-25.746 43.672-44.887 72.215-59.098 25.18-12.531 51.793-20.605 79.539-25.066 18.824-3.0273 37.781-4.543 56.82-4.5273 18.508 0 36.949 1.3984 55.34 3.5273 5.1602 0.59766 10.301 1.25 15.445 1.832 0.89844 0.10156 1.8125 0 3.1289 0-0.26562-1.4297-0.43359-2.6797-0.71484-3.9102-4.0117-17.973-10.969-34.652-21.305-49.961-15.062-22.301-35.332-37.129-61.328-44.336-19.887-5.5273-40.125-6.3398-60.531-5.1602-15.777 0.89844-31.074 4.1289-45.77 10.004-10.336 4.1289-19.871 9.5547-28.344 16.824-1.9453 1.6797-3.3945 3.6133-4.4609 5.9922-8.6211 19.055-27.676 29.758-48.664 27.461-19.738-2.1641-36.98-18.008-40.977-37.812-2.6445-13.066-0.48438-25.414 6.2578-36.898 6.6758-11.383 15.645-20.836 25.449-29.492 16.41-14.48 35.035-25.414 55.34-33.535 22.902-9.1523 46.633-14.531 71.215-16.426 17.16-1.3164 34.301-1.3828 51.426 0.16797 45.086 4.0625 86.16 18.539 121.05 48.148 23.465 19.922 41.309 44.289 54.656 71.949 12.367 25.629 19.855 52.676 22.703 81 0.64844 6.4727 1.0977 12.949 1.6641 19.59 3.6602 1.4961 7.3555 2.9805 11.02 4.4766 22.168 9.1211 42.605 21.152 60.945 36.648 24.582 20.77 42.273 46.551 54.738 76.043 10.852 25.629 17.543 52.359 20.969 79.969 2.6445 21.203 3.2461 42.488 1.9297 63.742-4.9414 79.805-36.281 147.64-93.418 203.59-36.184 35.449-78.371 61.363-125.49 79.504-29.891 11.5-60.73 19.355-92.52 23.465-25.664 3.3125-51.41 4.6914-77.242 3.6445-54.305-2.1953-106.75-12.832-156.83-34.469-57.684-24.914-104.97-63.094-144.33-111.71-39.043-48.215-66.258-102.57-85.113-161.37-11.102-34.633-19.141-69.984-24.863-105.88-3.8125-23.918-6.457-47.949-8.0898-72.113-1.4805-22.051-2.4141-44.105-2.0156-66.207 1.0664-59.48 8.8711-117.95 26.961-174.8 18.492-58.117 47.465-110.34 88.941-155.23 57.367-62.078 127.54-102.24 209.95-121 29.258-6.6562 58.918-10.27 88.891-11.402 24.898-0.94922 49.762-0.64844 74.578 1.2812 43.621 3.4297 86.543 10.668 127.92 25.43 35.418 12.633 68.52 29.625 98.395 52.691 33.219 25.648 59.48 57.27 80.77 93.27 11.184 18.922 20.805 38.629 30.559 58.285 7.207 14.531 14.281 29.125 21.27 43.77 3.5117 7.3398 6.0898 14.996 6.9883 23.184 2.9961 27.344-17.691 51.094-44.504 52.309-19.574 0.89844-38.062-10.52-45.953-29.559-3.7617-9.0703-7.707-18.09-12.016-26.93-8.8711-18.156-17.906-36.23-27.145-54.207-9.0195-17.543-19.305-34.316-31.57-49.797-20.004-25.23-44.77-44.586-73.395-59.117-26.746-13.562-54.988-22.633-84.445-28.094-17.41-3.2305-34.918-5.7422-52.559-7.0234-23.5-1.6992-47.035-2.1797-70.602-0.96484-36.883 1.9141-73.012 7.8906-107.58 21.086-76.574 29.207-133.39 80.52-169.91 154.02-15.062 30.324-24.633 62.512-31.121 95.664-4.6602 23.781-7.8555 47.766-8.9375 71.98-0.64844 14.746-1.4141 29.523-1.1836 44.27 0.36719 23.133 1.8125 46.234 4.3125 69.27 4.1289 38.164 11.168 75.742 21.801 112.61 10.75 37.199 25.164 72.879 45.367 106.03 15.445 25.348 33.82 48.383 54.957 69.219 30.223 29.773 65.906 50.496 105.98 63.926 26.098 8.7539 52.926 13.73 80.336 16.16 24.766 2.1797 49.465 1.8125 74.094-1.1328 52.625-6.293 101.02-23.898 143.76-55.637 30.59-22.719 55.09-50.777 71.516-85.445 8.7227-18.406 14.062-37.812 17.16-57.902 2.5625-16.645 3.1133-33.387 2.1953-50.145-1.3828-25.562-6.457-50.312-16.727-73.895-10.219-23.484-26.762-41.008-49.332-52.957-0.44922-0.25-0.94922-0.43359-1.8984-0.84766zm-90.805-26.215c-1.6133-0.31641-2.7617-0.59766-3.9297-0.75-7.5234-0.91406-15.027-1.8789-22.566-2.6797-17.191-1.832-34.418-3.0625-51.742-2.3984-17.727 0.68359-35.234 2.8477-52.375 7.457-19.422 5.2266-37.664 13.066-53.59 25.598-10.469 8.2383-19.207 18.023-24.531 30.422-3.6602 8.5703-4.625 17.426-1.9297 26.48 2.0625 6.9414 6.2734 12.551 11.168 17.727 8.6719 9.1523 19.238 15.461 30.871 20.004 21.918 8.5391 44.32 10.836 67.188 4.2773 16.176-4.6445 29.957-13.547 42.34-24.715 16.293-14.695 28.824-32.27 39.16-51.492 8.4727-15.746 15.012-32.254 19.938-49.945z"/>
</svg>
