<?xml version="1.0" encoding="UTF-8"?>
<svg width="1200pt" height="1200pt" version="1.1" viewBox="0 0 1200 1200" xmlns="http://www.w3.org/2000/svg">
 <path d="m658.02 601.8-12.84 12.84 181.26 220.22c3.3711 4.1055 9.5508 4.4023 13.309 0.64844l0.046875-0.046875c3.2773-3.2773 3.5273-8.5078 0.58984-12.086zm-49.199 49.199-12.84 12.84 140.72 171.06c3.3594 4.0938 9.5156 4.4023 13.285 0.67187 3.3008-3.2773 3.5625-8.5195 0.625-12.109zm-235.32-285.84c-3.4805-4.0781-9.6016-4.4414-13.441-0.60156-3.2383 3.2383-3.4805 8.5195-0.60156 12.121l182.52 221.76 12.84-12.84zm89.762 0c-3.4805-4.0781-9.6016-4.4414-13.441-0.60156-3.2383 3.2383-3.4805 8.5195-0.60156 12.121l142.08 172.56 12.719-12.84zm372.24-0.60156c-4.5586-4.5586-10.559-7.0781-17.039-7.0781-6.4805 0-12.602 2.5195-17.16 7.0781l-436.8 436.92c-4.5586 4.5586-7.0781 10.68-7.0781 17.039 0 6.4805 2.5195 12.602 7.0781 17.16 4.5586 4.5586 10.922 6.8398 17.16 6.8398l4.5586-0.48047c4.6797-0.83984 9-2.8789 12.48-6.3594l436.8-436.8c4.5586-4.6797 7.0781-10.68 7.0781-17.16s-2.5195-12.598-7.0781-17.16z"/>
</svg>
